Patient4_TMGait_0pt6_02_right_17_EMG.mot
version=1
nRows=39
nColumns=33
inDegrees=no
endheader
time	1LAddLong	2LGlutMax	3LGlutMed	4LIliopsoas	5LSemiMemb	6LBicFemLong	7LRecFem	8LVastMed	9LVastLat	10LGasMed	11LTibAnt	12lTibPost	13LPeroneusLong	14LSol	15LExtDigLong	16LFlexDigLong	17RAddLong	18RGlutMax	19RGlutMed	20RIliopsoas	21RSemiMemb	22RBicFemLong	23RRecFem	24RVastMed	25RVastLat	26RGasMed	27RTibAnt	28RTibPost	29RPeroneusLong	30RSol	31RExtDigLong	32RFlexDigLong
20.28	0.01358	-0.062561	0.028229	-0.013275	0.048065	0.077515	0.061035	-0.03006	-0.088806	-0.032959	0.009308	0.023346	0.24735	0.16876	-0.20889	0.01297	-0.021667	-0.058289	-0.65155	0.1886	0.012665	-0.012665	0.01709	-0.039673	-0.033112	-0.016479	0.039673	0.001068	0.31708	-0.004578	-0.000458	-0.005951
20.281	0.002899	-0.058136	0.070038	-0.013733	0.032806	0.13016	0.077057	-0.033417	-0.22095	0.02243	0.1831	0.029602	-0.91095	0.16144	-0.31906	0.008698	-0.007324	-0.005341	-0.45487	0.24872	0.000916	0.005035	-0.034943	-0.09079	-0.006104	-0.007935	-0.13229	-0.00061	0.17151	-0.032806	-0.003052	-0.008545
20.282	0.01297	-0.041351	0.098419	-0.024719	0.014801	0.062256	0.073242	-0.01709	-0.17136	0.097809	0.1947	0.031281	-1.0899	0.061493	-0.039368	-0.006256	-0.007935	-0.014038	-0.1152	0.13306	-0.041046	-0.011902	-0.01297	-0.047455	-0.01236	0.001526	0.059204	-0.001678	-0.17014	-0.04715	-0.004272	-0.007935
20.283	0.00473	-0.011139	0.062714	-0.010681	0.016632	0.009003	0.072174	-0.015106	-0.095673	-0.000153	0.22675	0.030518	-0.000305	0.12772	0.26718	0.007019	0.008392	-0.025177	0.242	0.013733	-0.068512	0.005798	0.011292	-0.097198	-0.015717	-0.003967	0.15182	0.007172	-0.10605	-0.025635	-0.001373	-0.01297
20.284	0.007477	-0.024719	-0.010986	0.011749	0.005646	-0.037079	0.073547	-0.006256	-0.094147	-0.044861	0.08728	0.033264	0.21561	0.028229	0.24979	0.01297	0.031433	-0.063477	0.017548	-0.014038	-0.031281	-0.019073	0.044861	-0.10727	-0.005341	-0.002899	0.26916	-0.000305	-0.1767	-0.001678	-0.000305	-0.004425
20.285	0.002594	-0.010986	0.014954	0.02533	0.0177	-0.070038	0.032043	-0.01358	-0.039063	-0.010071	-0.011749	0.040894	0.10147	-0.067444	-0.36041	0.00824	0.032349	-0.034943	0.2002	-0.016937	-0.034943	-0.010376	0.028534	-0.12863	-0.014648	0.000458	-0.009766	0.004578	-0.24506	0.083313	0.001831	-0.000153
20.286	0.003052	-0.015259	-0.081482	0.016327	0.011292	-0.019379	0.084229	-0.002441	0.013428	-0.10468	-0.017395	0.041962	-0.39291	0.062714	-0.44235	0.025177	0.038452	-0.112	0.42831	-0.070801	-0.025787	0.004883	-0.004425	-0.09552	0.00946	-0.00824	-0.076141	-0.001526	-0.52445	0.14587	-0.003052	-0.007019
20.287	0.005035	-0.011139	-0.18555	0.031738	0.010986	0.021362	0.14786	-0.005341	0.007324	-0.086365	-0.048676	0.041046	-0.38437	0.088654	-0.32883	0.004272	0.038452	-0.13428	0.40756	0.001984	-0.021057	0.022125	-0.049438	-0.09079	0.016632	-0.009766	0.15076	-0.003815	-0.6514	0.12695	-0.00061	-0.007782
20.288	-0.003662	0.000153	-0.21957	0.007324	0.019989	0.013123	0.13748	0.002136	-0.018921	0.004272	-0.028381	0.042114	0.01709	-0.045166	-0.32013	-0.007629	0.04425	-0.1236	-0.018158	0.029449	-0.028534	0.017853	0.020599	-0.10346	0.012207	-0.007935	0.097504	-0.00061	-0.38132	0.048981	-0.002899	-0.010071
20.289	-0.007019	0.042114	0.1268	0.005341	0.043182	0.042572	0.14084	0.035706	-0.011292	0.027924	-0.020599	0.045776	-0.19592	-0.11139	-0.11658	-0.013733	0.01709	-0.1297	-0.026093	0.039825	-0.033875	-0.013885	0.006866	-0.093536	0.011139	-0.014801	0.080872	-0.000916	-0.068207	-0.03418	-0.000305	-0.00824
20.29	0.001221	0.017242	0.22003	-0.000916	-0.003204	0.02533	0.068054	0.036469	0.016174	0.021973	-0.030823	0.046387	0.031891	-0.15274	0.10529	-0.011444	0.029602	-0.16953	-0.12909	0.027924	0.031891	-0.037994	-0.021057	-0.1088	-0.003967	-0.020752	0.07309	0.002289	-0.077362	-0.090332	0.000305	-0.009308
20.291	0.011902	0.026398	0.25467	0.033722	0.005646	-0.025177	0.063477	0.027008	0.05722	0.001831	-0.032501	0.040283	0.057983	-0.11444	0.13428	-0.005646	0.04715	-0.16419	-0.14633	0.034027	0.007935	-0.053101	0.027618	-0.16007	-0.000153	-0.008545	-0.015259	-0.000305	0.044098	-0.17303	0.001373	-0.00946
20.292	0.009766	0.028076	0.085907	0.028687	-0.000916	-0.054626	0.097504	0.006104	0.073242	0.006409	0.055695	0.060425	-0.081787	-0.16769	0.25665	0.000305	0.077667	-0.13886	-0.20676	0.053558	-0.014648	-0.059052	0.008392	-0.15564	0.013123	0.001221	-0.26627	-0.000153	0.2594	-0.16113	-0.000153	-0.014496
20.293	0.007172	0.024414	-0.029297	-0.027466	-0.003815	-0.03952	0.039063	0.010834	0.068665	0.019379	0.095673	0.057526	-0.11002	-0.14832	0.4303	0.013733	0.046997	-0.14984	-0.14191	0.077209	-0.11993	0.067139	0.016632	-0.11566	-0.001221	-0.007782	-0.57678	0.001373	0.35934	-0.050049	-0.003357	-0.018158
20.294	0.013275	0.061951	-0.016937	-0.025635	0.007172	-0.00412	0.075684	0.003052	0.07843	0.021973	0.08667	0.067596	-0.069733	0.023346	0.30838	0.018311	0.035858	-0.11795	0.010071	0.12054	-0.17624	0.12116	0.034485	-0.14633	0.002441	-0.009766	-0.81802	-0.001373	0.25452	-0.002289	-0.001831	-0.011444
20.295	0.015411	0.063477	0.13229	-0.029144	0.006714	0.006866	0.11383	0.000458	0.12405	0.015564	0.016785	0.058289	-0.013123	0.1947	0.070496	0.005035	0.012665	-0.09491	0.092468	0.10757	-0.24063	0.11627	0.025177	-0.10025	0.007172	-0.009613	-0.34882	-0.002289	0.30746	0.017853	-0.002136	-0.007172
20.296	0.007019	0.052795	0.18402	-0.023651	0.018158	-0.002289	0.089417	0.010529	0.09903	0.052185	-0.10895	0.063477	-0.062103	0.14053	-0.13229	0.003967	0.019684	-0.098419	0.14465	0.013428	-0.21973	0.087433	0.041809	-0.11169	0.009003	-0.011749	-0.077209	-0.00351	0.099335	0.019073	-0.000916	-0.009613
20.297	0.02121	0.04364	0.06134	-0.015717	0.017395	0.035706	-0.066681	0.011139	0.053558	0.044098	-0.11414	0.076447	-0.36438	0.10574	-0.24948	0.001678	0.087585	-0.045319	0.12405	-0.14008	-0.034332	0.06073	0.028381	-0.094757	0.009003	-0.009308	-0.011292	-0.002289	-0.02182	0.056305	-0.00061	-0.010681
20.298	0.020905	0.069733	0.077667	-0.017548	0.020447	0.04715	-0.12756	-0.019073	0.041504	0.036011	-0.028229	0.059204	-0.49118	0.026398	-0.29526	0.005646	0.093231	-0.054626	0.07019	-0.15472	0.14755	0.060272	0.070801	-0.069275	0.022583	-0.011444	0.019073	-0.003204	-0.089874	0.065002	-0.006256	-0.006866
20.299	0.00351	0.058899	0.049286	-0.003662	0.014343	0.055389	-0.038757	-0.007629	0.08606	0.025024	-0.059662	0.051575	-0.26108	-0.010376	-0.13245	0.019836	0.054932	-0.018311	0.12817	0.070496	0.032501	0.036163	0.070496	-0.093231	0.026398	0.000153	0.056915	-0.001984	-0.049896	0.054169	-0.008545	-0.005493
20.3	0.004578	0.036316	-0.002136	-0.003052	0.010071	0.065308	-0.012817	-0.002594	0.11459	-0.010223	0.066681	0.046997	0.2858	0.05127	0.43732	0.005646	-0.000458	-0.05722	-0.10834	0.26154	-0.018311	0.05661	0.084686	-0.080261	0.01358	-0.013428	0.048218	-0.005035	-0.048676	0.066071	-0.002594	-0.011597
20.301	0.005188	0.045776	-0.046692	-0.00824	0.006714	0.004578	-0.08255	0.007629	0.10071	-0.026093	0.24475	0.048981	0.43716	0.12955	0.39597	0.016632	-0.033417	-0.06485	-0.047607	0.23071	-0.018921	0.062866	0.023193	-0.041656	0.024567	-0.010223	0.004883	-0.005798	-0.020905	0.066528	-0.002899	-0.008545
20.302	0.005951	0.058899	-0.017242	0.006561	0.017395	-0.083466	0.004578	0.021362	0.021515	-0.035095	0.22964	0.040436	0.55267	0.21423	0.4715	0.028229	-0.005493	-0.080719	-0.21698	0.13931	-0.011139	0.059662	-0.002899	0.037537	0.02655	-0.012207	-0.029449	-0.009918	0.055237	0.019684	-0.006256	-0.00824
20.303	0.002136	0.050659	0.018311	0.034943	0.013733	-0.061646	-0.013428	0.006866	-0.042725	0.002899	0.00351	0.033264	0.69061	0.22018	0.6366	0.008392	-0.005951	-0.096893	-0.17731	0.05722	-0.022278	0.033569	0.000153	-0.029755	0.001526	-0.007782	0.050201	-0.004272	-0.019379	0.054626	0.000458	-0.003052
20.304	0.000763	0.040588	0.075226	0.035706	0.015717	-0.041199	0.06073	0.002747	-0.022125	0.000916	-0.093536	0.031738	0.072327	0.16449	-0.24063	0.004272	0.017242	-0.09079	-0.087738	-0.067902	-0.024567	0.021057	-0.010681	-0.043945	-0.018768	-0.012817	0.13336	-0.008392	-0.15869	0.045319	-0.004578	-0.012512
20.305	-0.006104	0.029449	0.007172	0.00885	0.006714	-0.011139	0.14679	-0.013123	-0.011902	0.058289	-0.12558	0.020447	-0.48325	-0.036621	-0.47516	-0.005035	0.006561	-0.091858	-0.26459	-0.088196	-0.019989	-0.014954	-0.043488	-0.10986	-0.009308	-0.012054	0.21408	-0.008698	-0.16525	0.019989	-0.002747	-0.002441
20.306	-0.020142	0.041046	-0.16419	0.003204	-0.002136	0.03067	0.23086	-0.00824	0.030518	0.051422	-0.21774	0.014191	-0.21896	-0.09491	-0.36804	0.002594	-0.051422	-0.041962	0.014191	-0.1413	-0.008545	-0.039063	-0.17136	-0.11963	-0.011597	-0.013123	0.19775	-0.003662	-0.11337	0.004425	-0.000763	-0.002441
20.307	-0.02243	0.048523	0.012665	0.014801	0.000153	0.009308	0.18677	-0.006256	0.12482	0.012207	-0.13397	0.004425	-0.16586	-0.05249	-0.33554	0.008087	-0.083008	-0.00885	-0.24536	-0.08316	-0.007782	-0.070801	-0.099335	-0.12482	-0.014648	-0.013885	0.1503	-0.005188	0.04364	-0.00061	-0.000763	-0.014954
20.308	0.00412	0.016327	-0.07019	0.031738	0.003204	-0.028534	0.001526	0.006104	0.39002	-0.053101	0.093994	0.006256	-0.20798	0.070038	-0.1297	-0.004578	-0.09613	-0.02243	0.46982	-0.036011	-0.003357	-0.099335	-0.0914	-0.095215	-0.013733	-0.009918	0.10269	-0.013733	0.24017	-0.004272	-0.000763	-0.003357
20.309	0.009308	0.026245	0.020752	0.003357	0.00824	-0.040283	-0.11444	-0.02121	0.43503	-0.038757	0.2681	-0.000763	-0.054169	0.10315	-0.34088	0.001068	-0.071259	-0.06546	0.25803	0.0383	0.018616	-0.071106	-0.022278	-0.069733	-0.016785	-0.005493	0.092163	-0.010681	0.48218	-0.007935	-0.00061	-0.005493
20.31	0.014038	0.043335	0.032043	0.001831	0.015869	-0.041962	-0.013275	-0.035248	0.33783	-0.042877	0.1709	-0.015717	0.005493	0.10407	0.87174	0.002594	-0.050964	-0.026245	-0.39154	-0.046997	0.022736	-0.030212	0.070801	-0.072632	-0.0383	-0.006714	0.13718	-0.003815	0.34622	-0.014648	-0.001984	-0.057678
20.311	-0.009613	0.049133	-0.015259	0.011139	0.009613	0.015717	0.16739	-0.011902	0.036163	-0.012817	0.13763	-0.018158	-0.10941	-0.05661	-0.13825	0.003357	-0.050812	-0.083008	-0.42938	-0.060883	-0.04425	0.046234	0.030975	-0.008392	-0.036469	-0.008545	0.17349	-0.006714	-0.19348	-0.032349	-0.002441	-0.054321
20.312	-0.009155	0.06424	0.009003	0.0177	-0.001678	0.030365	0.24872	0.002747	-0.099487	-0.027466	0.033264	-0.019989	-0.20844	-0.033417	-0.067902	0.022125	-0.031586	-0.064545	0.092316	-0.13184	-0.076294	0.021515	0.11581	0.028992	-0.023193	-0.006256	0.18387	-0.01236	-0.17197	-0.028076	0	-0.051727
20.313	-0.005188	0.016937	0.031281	-0.012512	0.003204	0.01297	0.18295	0.014801	-0.11536	-0.010834	0.10788	-0.017395	-0.12177	-0.00885	-0.0914	0.019379	0.010986	-0.084534	0.88348	-0.15366	-0.13382	-0.050964	0.072937	-0.012207	-0.014496	-0.01297	0.11368	-0.004883	-0.18372	-0.019684	-0.001221	-0.052185
20.314	-0.001678	-0.00473	-0.050049	-0.010834	0.00473	0.023651	0.028992	0.009308	-0.025024	0.033264	-0.051117	-0.025635	0.2002	0.050201	-0.070801	0.005035	0.036011	-0.11154	0.89722	-0.12375	-0.32303	-0.096741	0.053711	-0.09613	-0.021057	-0.016479	0.041199	-0.006561	-0.27054	-0.011597	-0.00412	-0.040741
20.315	0.012054	0.020599	-0.062714	0.003815	0.006409	0.015411	-0.079498	0.000763	0.066376	0.067444	-0.077667	-0.032654	0.1712	-0.005646	-0.35675	-0.006409	0.020447	-0.1181	0.36331	-0.098877	-0.40543	-0.13138	0.043182	-0.13779	-0.022888	-0.018005	0.12619	-0.01236	0.023956	-0.043793	-0.001068	-0.032654
20.316	0.015564	0.010529	0.055695	-0.003967	0.009155	-0.009613	-0.030518	-0.020294	0.075226	0.06012	-0.049744	-0.014954	0.25909	-0.10376	-0.45166	-0.006866	0.007324	-0.17548	-0.009308	0.058594	-0.32196	-0.1387	0.009155	-0.06073	-0.011597	-0.018616	0.089264	-0.014801	0.2977	-0.084686	-0.002441	-0.024261
20.317	0.006561	-0.003357	0.061951	-0.005798	0.006409	0.028229	0.069122	-0.01297	0.03891	-0.001373	-0.072937	-0.037537	0.50293	0.008087	-0.050812	-0.01236	-0.016937	-0.11215	-0.05661	0.24002	0.18478	-0.067291	0.011292	-0.051117	-0.002441	-0.016174	0.20477	-0.006256	0.1767	-0.097809	0	-0.028229
20.318	0.006561	0.030212	0.12161	-0.014954	0.009613	0.004425	0.11551	-0.013275	0.057831	0.021362	-0.029755	-0.032349	0.57587	-0.080261	-0.092773	0.000763	-0.041351	-0.081177	-0.11765	0.40146	0.62439	0.014496	0.001526	-0.045319	0.007935	-0.020142	0.18265	-0.011292	-0.39291	-0.023041	0.003357	-0.023499
